G04*
G04 #@! TF.GenerationSoftware,Altium Limited,Altium Designer,21.4.1 (30)*
G04*
G04 Layer_Physical_Order=1*
G04 Layer_Color=255*
%FSLAX25Y25*%
%MOIN*%
G70*
G04*
G04 #@! TF.SameCoordinates,1EC51C1C-F771-4994-86DF-2D69714EE4D9*
G04*
G04*
G04 #@! TF.FilePolarity,Positive*
G04*
G01*
G75*
%ADD11C,0.01000*%
%ADD13R,0.09803X0.07913*%
G04:AMPARAMS|DCode=14|XSize=90.95mil|YSize=18.9mil|CornerRadius=4.72mil|HoleSize=0mil|Usage=FLASHONLY|Rotation=0.000|XOffset=0mil|YOffset=0mil|HoleType=Round|Shape=RoundedRectangle|*
%AMROUNDEDRECTD14*
21,1,0.09095,0.00945,0,0,0.0*
21,1,0.08150,0.01890,0,0,0.0*
1,1,0.00945,0.04075,-0.00472*
1,1,0.00945,-0.04075,-0.00472*
1,1,0.00945,-0.04075,0.00472*
1,1,0.00945,0.04075,0.00472*
%
%ADD14ROUNDEDRECTD14*%
G04:AMPARAMS|DCode=15|XSize=76.77mil|YSize=66.93mil|CornerRadius=16.73mil|HoleSize=0mil|Usage=FLASHONLY|Rotation=90.000|XOffset=0mil|YOffset=0mil|HoleType=Round|Shape=RoundedRectangle|*
%AMROUNDEDRECTD15*
21,1,0.07677,0.03347,0,0,90.0*
21,1,0.04331,0.06693,0,0,90.0*
1,1,0.03346,0.01673,0.02165*
1,1,0.03346,0.01673,-0.02165*
1,1,0.03346,-0.01673,-0.02165*
1,1,0.03346,-0.01673,0.02165*
%
%ADD15ROUNDEDRECTD15*%
G04:AMPARAMS|DCode=16|XSize=23.62mil|YSize=45.28mil|CornerRadius=5.91mil|HoleSize=0mil|Usage=FLASHONLY|Rotation=90.000|XOffset=0mil|YOffset=0mil|HoleType=Round|Shape=RoundedRectangle|*
%AMROUNDEDRECTD16*
21,1,0.02362,0.03347,0,0,90.0*
21,1,0.01181,0.04528,0,0,90.0*
1,1,0.01181,0.01673,0.00591*
1,1,0.01181,0.01673,-0.00591*
1,1,0.01181,-0.01673,-0.00591*
1,1,0.01181,-0.01673,0.00591*
%
%ADD16ROUNDEDRECTD16*%
%ADD17R,0.02756X0.03543*%
G04:AMPARAMS|DCode=18|XSize=78.74mil|YSize=39.37mil|CornerRadius=9.84mil|HoleSize=0mil|Usage=FLASHONLY|Rotation=0.000|XOffset=0mil|YOffset=0mil|HoleType=Round|Shape=RoundedRectangle|*
%AMROUNDEDRECTD18*
21,1,0.07874,0.01968,0,0,0.0*
21,1,0.05906,0.03937,0,0,0.0*
1,1,0.01968,0.02953,-0.00984*
1,1,0.01968,-0.02953,-0.00984*
1,1,0.01968,-0.02953,0.00984*
1,1,0.01968,0.02953,0.00984*
%
%ADD18ROUNDEDRECTD18*%
%ADD19R,0.03937X0.03937*%
%ADD20R,0.03543X0.02756*%
G04:AMPARAMS|DCode=21|XSize=35.43mil|YSize=31.5mil|CornerRadius=7.87mil|HoleSize=0mil|Usage=FLASHONLY|Rotation=180.000|XOffset=0mil|YOffset=0mil|HoleType=Round|Shape=RoundedRectangle|*
%AMROUNDEDRECTD21*
21,1,0.03543,0.01575,0,0,180.0*
21,1,0.01968,0.03150,0,0,180.0*
1,1,0.01575,-0.00984,0.00787*
1,1,0.01575,0.00984,0.00787*
1,1,0.01575,0.00984,-0.00787*
1,1,0.01575,-0.00984,-0.00787*
%
%ADD21ROUNDEDRECTD21*%
G04:AMPARAMS|DCode=22|XSize=23.62mil|YSize=39.37mil|CornerRadius=5.91mil|HoleSize=0mil|Usage=FLASHONLY|Rotation=180.000|XOffset=0mil|YOffset=0mil|HoleType=Round|Shape=RoundedRectangle|*
%AMROUNDEDRECTD22*
21,1,0.02362,0.02756,0,0,180.0*
21,1,0.01181,0.03937,0,0,180.0*
1,1,0.01181,-0.00591,0.01378*
1,1,0.01181,0.00591,0.01378*
1,1,0.01181,0.00591,-0.01378*
1,1,0.01181,-0.00591,-0.01378*
%
%ADD22ROUNDEDRECTD22*%
%ADD38C,0.01200*%
%ADD39C,0.02500*%
%ADD40C,0.02000*%
%ADD41C,0.03937*%
%ADD42C,0.06693*%
%ADD43R,0.06693X0.06693*%
%ADD44O,0.15748X0.06693*%
G04:AMPARAMS|DCode=45|XSize=157.48mil|YSize=66.93mil|CornerRadius=16.73mil|HoleSize=0mil|Usage=FLASHONLY|Rotation=180.000|XOffset=0mil|YOffset=0mil|HoleType=Round|Shape=RoundedRectangle|*
%AMROUNDEDRECTD45*
21,1,0.15748,0.03347,0,0,180.0*
21,1,0.12402,0.06693,0,0,180.0*
1,1,0.03346,-0.06201,0.01673*
1,1,0.03346,0.06201,0.01673*
1,1,0.03346,0.06201,-0.01673*
1,1,0.03346,-0.06201,-0.01673*
%
%ADD45ROUNDEDRECTD45*%
%ADD46C,0.04134*%
D11*
X184000Y138953D02*
X189032D01*
X190571Y137414D01*
Y135740D02*
Y137414D01*
X145172Y145398D02*
X171945D01*
X172047Y145500D01*
X184000Y133047D02*
X184000Y133047D01*
X184000Y129461D02*
Y133047D01*
X181740Y127201D02*
X184000Y129461D01*
X181740Y126413D02*
Y127201D01*
D13*
X128283Y108642D02*
D03*
Y143642D02*
D03*
X106590Y108642D02*
D03*
Y143642D02*
D03*
D14*
X128638Y126142D02*
D03*
Y129252D02*
D03*
Y132362D02*
D03*
Y123031D02*
D03*
Y119921D02*
D03*
D15*
X222047Y107000D02*
D03*
X206890D02*
D03*
X222047Y142913D02*
D03*
X206890D02*
D03*
D16*
X199429Y132000D02*
D03*
X190571Y128260D02*
D03*
Y135740D02*
D03*
X190571Y117500D02*
D03*
X199429Y121240D02*
D03*
Y113760D02*
D03*
D17*
X177953Y145500D02*
D03*
X172047D02*
D03*
D18*
X145172Y132602D02*
D03*
Y145398D02*
D03*
X160920Y132602D02*
D03*
Y145398D02*
D03*
D19*
X165500Y111453D02*
D03*
Y105547D02*
D03*
D20*
X174000Y110453D02*
D03*
Y104547D02*
D03*
X184000Y133047D02*
D03*
Y138953D02*
D03*
X183500Y110453D02*
D03*
Y104547D02*
D03*
D21*
X178000Y133244D02*
D03*
Y138756D02*
D03*
D22*
X174260Y115587D02*
D03*
X178000D02*
D03*
X181740D02*
D03*
Y126413D02*
D03*
X178000D02*
D03*
X174260D02*
D03*
D38*
X138927Y107037D02*
X144195Y101769D01*
X138583Y108465D02*
Y110138D01*
X160920Y126506D02*
Y132602D01*
X160827Y126413D02*
X174260D01*
X145311D02*
X160827D01*
X160920Y126506D01*
X145177Y126279D02*
X145311Y126413D01*
X165305Y111648D02*
Y114518D01*
Y111648D02*
X165500Y111453D01*
X148000Y117500D02*
X162323D01*
X165305Y114518D01*
X141976Y138976D02*
X168799D01*
X174531Y133244D01*
X137431Y134431D02*
X141976Y138976D01*
X174531Y133244D02*
X178000D01*
X206890Y107000D02*
Y112795D01*
X190571Y117500D02*
X202185D01*
X206890Y112795D01*
X114075Y142323D02*
X121260Y149508D01*
X178051D01*
X114075Y129331D02*
Y142323D01*
X134311Y119921D02*
X138583Y115650D01*
Y110138D02*
Y115650D01*
Y110138D02*
X138583Y110138D01*
X144195Y101769D02*
X176351D01*
X195000Y122500D02*
Y128000D01*
X114075Y129331D02*
X123381Y120025D01*
X128534D02*
X128638Y119921D01*
X123381Y120025D02*
X128534D01*
X195000Y128000D02*
Y138268D01*
X178051Y149508D02*
X183760D01*
X195000Y138268D01*
X177976Y138779D02*
Y145476D01*
Y138779D02*
X178000Y138756D01*
X177953Y145500D02*
X177976Y145476D01*
X177953Y149409D02*
X178051Y149508D01*
X177953Y145500D02*
Y149409D01*
X128638Y119921D02*
X134311D01*
X178000Y103418D02*
Y115587D01*
X176351Y101769D02*
X178000Y103418D01*
X136024Y135827D02*
X136035D01*
X137431Y134431D01*
X135362Y132362D02*
X137431Y134431D01*
X190571Y128260D02*
X194740D01*
X195000Y128000D01*
X199391Y121278D02*
X199429Y121240D01*
X196222Y121278D02*
X199391D01*
X195000Y122500D02*
X196222Y121278D01*
X169453Y105547D02*
X170453Y104547D01*
X174000D01*
X165500Y105547D02*
X169453D01*
X148000Y107500D02*
X154500D01*
X156453Y105547D02*
X165500D01*
X154500Y107500D02*
X156453Y105547D01*
X174000Y110453D02*
X174130Y110583D01*
Y115457D01*
X174260Y115587D01*
X184000Y110953D02*
Y114797D01*
X183500Y110453D02*
X184000Y110953D01*
X183297Y115500D02*
X184000Y114797D01*
X181827Y115500D02*
X183297D01*
X181740Y115587D02*
X181827Y115500D01*
X184000Y104047D02*
X192047D01*
X183500Y104547D02*
X184000Y104047D01*
X199429Y111429D02*
Y113760D01*
X192047Y104047D02*
X199429Y111429D01*
X178000Y126413D02*
Y132744D01*
Y126413D02*
X178000Y126413D01*
X128638Y132362D02*
X135362D01*
X145172Y132602D02*
X160920D01*
D39*
X106866Y108366D02*
X116043D01*
X106590Y108642D02*
X106866Y108366D01*
X106590Y108642D02*
Y143642D01*
X205106Y105217D02*
X206890Y107000D01*
X199409Y105217D02*
X205106D01*
X223524Y120571D02*
Y141437D01*
Y108476D02*
Y120571D01*
X223504Y120591D02*
X223524Y120571D01*
X212598Y120591D02*
X223504D01*
X222047Y142913D02*
X223524Y141437D01*
X222047Y107000D02*
X223524Y108476D01*
D40*
X200689Y142815D02*
X206791D01*
X206890Y142913D01*
X199429Y132000D02*
Y141555D01*
X200689Y142815D01*
X207152Y134109D02*
X207173Y134088D01*
X207152Y134109D02*
Y142651D01*
X206890Y142913D02*
X207152Y142651D01*
X207173Y132758D02*
Y134088D01*
Y132758D02*
X209341Y130591D01*
X212598D01*
D41*
X118500Y134783D02*
D03*
Y117500D02*
D03*
D42*
X148000Y107500D02*
D03*
D43*
Y117500D02*
D03*
D44*
X212598Y130591D02*
D03*
D45*
Y120591D02*
D03*
D46*
X145177Y126279D02*
D03*
X140354Y108465D02*
D03*
X116043Y108366D02*
D03*
X136024Y135827D02*
D03*
X199409Y105217D02*
D03*
M02*
