G04*
G04 #@! TF.GenerationSoftware,Altium Limited,Altium Designer,21.4.1 (30)*
G04*
G04 Layer_Physical_Order=2*
G04 Layer_Color=16711680*
%FSLAX25Y25*%
%MOIN*%
G70*
G04*
G04 #@! TF.SameCoordinates,1EC51C1C-F771-4994-86DF-2D69714EE4D9*
G04*
G04*
G04 #@! TF.FilePolarity,Positive*
G04*
G01*
G75*
%ADD17R,0.02756X0.03543*%
%ADD38C,0.01200*%
%ADD39C,0.02500*%
%ADD41C,0.03937*%
%ADD42C,0.06693*%
%ADD43R,0.06693X0.06693*%
%ADD44O,0.15748X0.06693*%
G04:AMPARAMS|DCode=45|XSize=157.48mil|YSize=66.93mil|CornerRadius=16.73mil|HoleSize=0mil|Usage=FLASHONLY|Rotation=180.000|XOffset=0mil|YOffset=0mil|HoleType=Round|Shape=RoundedRectangle|*
%AMROUNDEDRECTD45*
21,1,0.15748,0.03347,0,0,180.0*
21,1,0.12402,0.06693,0,0,180.0*
1,1,0.03346,-0.06201,0.01673*
1,1,0.03346,0.06201,0.01673*
1,1,0.03346,0.06201,-0.01673*
1,1,0.03346,-0.06201,-0.01673*
%
%ADD45ROUNDEDRECTD45*%
%ADD46C,0.04134*%
G04:AMPARAMS|DCode=47|XSize=98.43mil|YSize=98.43mil|CornerRadius=24.61mil|HoleSize=0mil|Usage=FLASHONLY|Rotation=270.000|XOffset=0mil|YOffset=0mil|HoleType=Round|Shape=RoundedRectangle|*
%AMROUNDEDRECTD47*
21,1,0.09843,0.04921,0,0,270.0*
21,1,0.04921,0.09843,0,0,270.0*
1,1,0.04921,-0.02461,-0.02461*
1,1,0.04921,-0.02461,0.02461*
1,1,0.04921,0.02461,0.02461*
1,1,0.04921,0.02461,-0.02461*
%
%ADD47ROUNDEDRECTD47*%
G36*
X227882Y102039D02*
X201949D01*
X201780Y102539D01*
X201953Y102673D01*
X202525Y103418D01*
X202885Y104285D01*
X203007Y105217D01*
X202885Y106148D01*
X202525Y107015D01*
X201953Y107761D01*
X201208Y108332D01*
X200341Y108692D01*
X199409Y108814D01*
X198478Y108692D01*
X198018Y108501D01*
X197635D01*
X197027Y109109D01*
Y113894D01*
X196873Y115058D01*
X196424Y116143D01*
X195869Y116867D01*
X196139Y117335D01*
X196314Y117313D01*
X203086D01*
X203189Y117065D01*
X203778Y116298D01*
X204545Y115709D01*
X205439Y115339D01*
X206398Y115212D01*
X218799D01*
X219758Y115339D01*
X220652Y115709D01*
X221419Y116298D01*
X222008Y117065D01*
X222378Y117958D01*
X222504Y118917D01*
Y122264D01*
X222378Y123223D01*
X222008Y124116D01*
X221419Y124883D01*
X220652Y125472D01*
X220267Y125632D01*
X220192Y126204D01*
X220939Y126777D01*
X221796Y127894D01*
X222335Y129195D01*
X222519Y130591D01*
X222335Y131986D01*
X221796Y133287D01*
X220939Y134404D01*
X219822Y135261D01*
X218522Y135799D01*
X217126Y135983D01*
X208071D01*
X206675Y135799D01*
X205375Y135261D01*
X204258Y134404D01*
X203401Y133287D01*
X202862Y131986D01*
X202678Y130591D01*
X202862Y129195D01*
X203401Y127894D01*
X204258Y126777D01*
X205005Y126204D01*
X204930Y125632D01*
X204545Y125472D01*
X203778Y124883D01*
X203189Y124116D01*
X203086Y123869D01*
X197672D01*
X193140Y128400D01*
Y133688D01*
X193692Y133760D01*
X194777Y134210D01*
X195709Y134925D01*
X196424Y135857D01*
X196873Y136942D01*
X197027Y138106D01*
Y143028D01*
X196873Y144192D01*
X196424Y145277D01*
X195709Y146209D01*
X194777Y146924D01*
X193692Y147373D01*
X192528Y147527D01*
X187606D01*
X186442Y147373D01*
X185357Y146924D01*
X184425Y146209D01*
X183710Y145277D01*
X183261Y144192D01*
X183107Y143028D01*
Y138106D01*
X183261Y136942D01*
X183710Y135857D01*
X184425Y134925D01*
X185357Y134210D01*
X186442Y133760D01*
X186584Y133742D01*
Y130320D01*
X158764D01*
X150940Y138145D01*
X150261Y138666D01*
X149470Y138993D01*
X149046Y139049D01*
X148622Y139105D01*
X137431D01*
X136955Y139302D01*
X136024Y139425D01*
X135092Y139302D01*
X134225Y138943D01*
X133480Y138371D01*
X132908Y137626D01*
X132548Y136758D01*
X132426Y135827D01*
X132548Y134896D01*
X132908Y134028D01*
X133480Y133283D01*
X134225Y132711D01*
X135092Y132352D01*
X136024Y132229D01*
X136955Y132352D01*
X137431Y132549D01*
X147264D01*
X155089Y124724D01*
X155768Y124204D01*
X156558Y123876D01*
X157406Y123764D01*
X188504D01*
X193500Y118769D01*
X193266Y118296D01*
X192528Y118393D01*
X187606D01*
X186442Y118239D01*
X185357Y117790D01*
X184425Y117075D01*
X183710Y116143D01*
X183261Y115058D01*
X183107Y113894D01*
Y108972D01*
X183261Y107808D01*
X183710Y106723D01*
X184425Y105791D01*
X185357Y105076D01*
X186442Y104627D01*
X187606Y104473D01*
X192391D01*
X193959Y102905D01*
X194436Y102539D01*
X194266Y102039D01*
X150094D01*
X149994Y102539D01*
X150696Y102830D01*
X151813Y103687D01*
X152670Y104804D01*
X153209Y106104D01*
X153393Y107500D01*
X153209Y108896D01*
X152670Y110196D01*
X151813Y111313D01*
X151335Y111680D01*
X151496Y112153D01*
X153347D01*
Y122846D01*
X147384D01*
X147214Y123346D01*
X147721Y123735D01*
X148293Y124481D01*
X148652Y125348D01*
X148775Y126279D01*
X148652Y127211D01*
X148293Y128078D01*
X147721Y128823D01*
X146976Y129395D01*
X146108Y129755D01*
X145177Y129877D01*
X144246Y129755D01*
X143378Y129395D01*
X142735Y128902D01*
X135630D01*
X134951Y128813D01*
X134319Y128551D01*
X133776Y128134D01*
X133775Y128134D01*
X132890Y127248D01*
X132473Y126705D01*
X132211Y126072D01*
X132203Y126016D01*
X131366D01*
Y118473D01*
X132249D01*
X132444Y117973D01*
X132211Y117411D01*
X132122Y116732D01*
X132211Y116053D01*
X132333Y115759D01*
Y113864D01*
X132333Y113864D01*
X132422Y113185D01*
X132684Y112552D01*
X132884Y112292D01*
X132638Y111792D01*
X127736D01*
X127362Y111841D01*
X126514Y111729D01*
X125723Y111402D01*
X125335Y111104D01*
X124835Y111350D01*
Y112335D01*
X118079D01*
Y111644D01*
X117450D01*
X116974Y111841D01*
X116043Y111964D01*
X115112Y111841D01*
X114244Y111482D01*
X113499Y110910D01*
X112928Y110165D01*
X112568Y109297D01*
X112446Y108366D01*
X112568Y107435D01*
X112928Y106567D01*
X113499Y105822D01*
X114244Y105250D01*
X115112Y104891D01*
X116043Y104768D01*
X116974Y104891D01*
X117450Y105088D01*
X118079D01*
Y104791D01*
X124835D01*
Y105764D01*
X125335Y106011D01*
X125772Y105675D01*
X126563Y105348D01*
X127411Y105236D01*
X140305D01*
X141154Y105348D01*
X141944Y105675D01*
X142329Y105970D01*
X142920Y105793D01*
X143330Y104804D01*
X144187Y103687D01*
X145304Y102830D01*
X146006Y102539D01*
X145906Y102039D01*
X102039D01*
Y149142D01*
X227882D01*
Y102039D01*
D02*
G37*
%LPC*%
G36*
X163394Y147527D02*
X158472D01*
X157308Y147373D01*
X156223Y146924D01*
X155291Y146209D01*
X154576Y145277D01*
X154127Y144192D01*
X153973Y143028D01*
Y138106D01*
X154127Y136942D01*
X154576Y135857D01*
X155291Y134925D01*
X156223Y134210D01*
X157308Y133760D01*
X158472Y133607D01*
X163394D01*
X164558Y133760D01*
X165643Y134210D01*
X166575Y134925D01*
X167290Y135857D01*
X167739Y136942D01*
X167893Y138106D01*
Y143028D01*
X167739Y144192D01*
X167290Y145277D01*
X166575Y146209D01*
X165643Y146924D01*
X164558Y147373D01*
X163394Y147527D01*
D02*
G37*
G36*
X118500Y138786D02*
X117464Y138650D01*
X116499Y138250D01*
X115670Y137614D01*
X115033Y136785D01*
X114634Y135819D01*
X114497Y134783D01*
X114634Y133747D01*
X115033Y132782D01*
X115670Y131953D01*
X116499Y131317D01*
X117464Y130917D01*
X118500Y130781D01*
X119536Y130917D01*
X120501Y131317D01*
X121330Y131953D01*
X121967Y132782D01*
X122366Y133747D01*
X122503Y134783D01*
X122366Y135819D01*
X121967Y136785D01*
X121330Y137614D01*
X120501Y138250D01*
X119536Y138650D01*
X118500Y138786D01*
D02*
G37*
G36*
Y121503D02*
X117464Y121366D01*
X116499Y120966D01*
X115670Y120330D01*
X115033Y119501D01*
X114634Y118536D01*
X114497Y117500D01*
X114634Y116464D01*
X115033Y115499D01*
X115670Y114670D01*
X116499Y114033D01*
X117464Y113634D01*
X118500Y113497D01*
X119536Y113634D01*
X120501Y114033D01*
X121330Y114670D01*
X121967Y115499D01*
X122366Y116464D01*
X122503Y117500D01*
X122366Y118536D01*
X121967Y119501D01*
X121330Y120330D01*
X120501Y120966D01*
X119536Y121366D01*
X118500Y121503D01*
D02*
G37*
G36*
X163394Y118393D02*
X158472D01*
X157308Y118239D01*
X156223Y117790D01*
X155291Y117075D01*
X154576Y116143D01*
X154127Y115058D01*
X153973Y113894D01*
Y108972D01*
X154127Y107808D01*
X154576Y106723D01*
X155291Y105791D01*
X156223Y105076D01*
X157308Y104627D01*
X158472Y104473D01*
X163394D01*
X164558Y104627D01*
X165643Y105076D01*
X166575Y105791D01*
X167290Y106723D01*
X167739Y107808D01*
X167893Y108972D01*
Y113894D01*
X167739Y115058D01*
X167290Y116143D01*
X166575Y117075D01*
X165643Y117790D01*
X164558Y118239D01*
X163394Y118393D01*
D02*
G37*
%LPD*%
D17*
X134744Y122244D02*
D03*
X140650D02*
D03*
Y116732D02*
D03*
X134744D02*
D03*
X121457Y108563D02*
D03*
X127362D02*
D03*
D38*
X140305Y108514D02*
X140354Y108465D01*
X134955Y113864D02*
X140305Y108514D01*
X134744Y116732D02*
X134955Y116521D01*
Y113864D02*
Y116521D01*
X134744Y122244D02*
Y125394D01*
X135630Y126279D02*
X145177D01*
X134744Y125394D02*
X135630Y126279D01*
X147232Y116732D02*
X148000Y117500D01*
X140650Y116732D02*
X147232D01*
X140650D02*
Y122244D01*
D39*
X127411Y108514D02*
X140305D01*
X136024Y135827D02*
X148622D01*
X157406Y127042D01*
X189862D01*
X127362Y108563D02*
X127411Y108514D01*
X116043Y108366D02*
X121329D01*
X121457Y108494D02*
Y108563D01*
X121329Y108366D02*
X121457Y108494D01*
X190067Y111433D02*
X196277Y105223D01*
X199403D01*
X190067Y111433D02*
X190067D01*
X199403Y105223D02*
X199409Y105217D01*
X196314Y120591D02*
X212598D01*
X189862Y127042D02*
Y140362D01*
Y127042D02*
X196314Y120591D01*
X189862Y140362D02*
X190067Y140567D01*
D41*
X118500Y134783D02*
D03*
Y117500D02*
D03*
D42*
X148000Y107500D02*
D03*
D43*
Y117500D02*
D03*
D44*
X212598Y130591D02*
D03*
D45*
Y120591D02*
D03*
D46*
X145177Y126279D02*
D03*
X140354Y108465D02*
D03*
X116043Y108366D02*
D03*
X136024Y135827D02*
D03*
X199409Y105217D02*
D03*
D47*
X160933Y140567D02*
D03*
X190067D02*
D03*
Y111433D02*
D03*
X160933D02*
D03*
M02*
