G04*
G04 #@! TF.GenerationSoftware,Altium Limited,Altium Designer,21.4.1 (30)*
G04*
G04 Layer_Color=128*
%FSLAX25Y25*%
%MOIN*%
G70*
G04*
G04 #@! TF.SameCoordinates,1EC51C1C-F771-4994-86DF-2D69714EE4D9*
G04*
G04*
G04 #@! TF.FilePolarity,Positive*
G04*
G01*
G75*
%ADD49C,0.00200*%
D49*
X116532Y134783D02*
X120468D01*
X118500Y132815D02*
Y136752D01*
X116532Y117500D02*
X120468D01*
X118500Y115532D02*
Y119468D01*
X145835Y107500D02*
X150165D01*
X148000Y105335D02*
Y109665D01*
X145835Y117500D02*
X150165D01*
X148000Y115335D02*
Y119665D01*
X210433Y130591D02*
X214764D01*
X212598Y128425D02*
Y132756D01*
X210433Y120591D02*
X214764D01*
X212598Y118425D02*
Y122756D01*
X143898Y126279D02*
X146457D01*
X145177Y125000D02*
Y127559D01*
X139075Y108465D02*
X141634D01*
X140354Y107185D02*
Y109744D01*
X114764Y108366D02*
X117323D01*
X116043Y107087D02*
Y109646D01*
X134744Y135827D02*
X137303D01*
X136024Y134547D02*
Y137106D01*
X198130Y105217D02*
X200689D01*
X199409Y103937D02*
Y106496D01*
M02*
